<svg width="17" height="17" viewBox="0 0 17 17" fill="none" xmlns="http://www.w3.org/2000/svg">
<path d="M11.4685 8.66299C11.4685 9.35674 11.431 10.0255 11.3654 10.663H5.57163C5.50601 10.0255 5.44038 9.35674 5.44038 8.66299C5.44038 7.96924 5.50601 7.30049 5.57163 6.66299H11.3654C11.431 7.30049 11.4685 7.96924 11.4685 8.66299ZM16.2154 6.66299C16.381 7.30362 16.4685 7.97237 16.4685 8.66299C16.4685 9.35362 16.381 10.0224 16.2154 10.663H12.3685C12.4341 10.0192 12.4685 9.32237 12.4685 8.66299C12.4685 7.97549 12.4341 7.30674 12.3685 6.66299H16.2154ZM15.8873 5.66299H12.2404C11.9279 3.66737 11.3091 1.99487 10.5123 0.926807C12.9623 1.57206 14.9498 3.34862 15.8873 5.66299ZM11.2279 5.66299H5.70913C5.89976 4.52549 6.19351 3.51862 6.55288 2.70518C6.88101 1.96737 7.24663 1.43206 7.59976 1.09456C7.94976 0.762307 8.24038 0.662994 8.46851 0.662994C8.69663 0.662994 8.98726 0.762307 9.33726 1.09456C9.69038 1.43206 10.056 1.96737 10.3841 2.70518C10.7435 3.51862 11.0373 4.52549 11.2279 5.66299ZM1.05007 5.66299C1.98694 3.34862 3.97476 1.57206 6.42476 0.926807C5.62788 1.99487 5.00913 3.66737 4.69663 5.66299H1.05007ZM4.56851 6.66299C4.50288 7.30674 4.44038 7.97549 4.44038 8.66299C4.44038 9.32237 4.50288 10.0192 4.56851 10.663H0.720537C0.556006 10.0224 0.468506 9.35362 0.468506 8.66299C0.468506 7.97237 0.556006 7.30362 0.720537 6.66299H4.56851ZM6.55288 14.6192C6.19351 13.8067 5.89976 12.8005 5.70913 11.663H11.2279C11.0373 12.8005 10.7435 13.8067 10.3841 14.6192C10.056 15.3599 9.69038 15.8942 9.33726 16.2317C8.98726 16.563 8.69663 16.663 8.44038 16.663C8.24038 16.663 7.94976 16.563 7.59976 16.2317C7.24663 15.8942 6.88101 15.3599 6.55288 14.6192ZM6.42476 16.4005C3.97476 15.7536 1.98694 13.9786 1.05007 11.663H4.69663C5.00913 13.6599 5.62788 15.3317 6.42476 16.4005ZM10.5123 16.4005C11.3091 15.3317 11.9279 13.6599 12.2404 11.663H15.8873C14.9498 13.9786 12.9623 15.7536 10.5123 16.4005Z" fill="white"/>
</svg>
