<svg width="16" height="21" viewBox="0 0 16 21" fill="none" xmlns="http://www.w3.org/2000/svg">
<path d="M15.5982 6.42285V8.92285C15.5982 9.61113 15.0368 10.1729 14.3833 10.1729H10.6333V18.9229C10.6333 19.6111 10.0716 20.1729 9.41849 20.1729H6.88333C6.19505 20.1729 5.63333 19.6111 5.63333 18.9229V10.1729H1.88333C1.19466 10.1729 0.633301 9.61035 0.633301 8.92285V6.42285C0.633301 5.73457 1.19502 5.17285 1.8833 5.17285H5.6333V1.42285C5.6333 0.73457 6.19502 0.172852 6.8833 0.172852H9.3833C10.0716 0.172852 10.5981 0.73457 10.5981 1.42285V5.17285H14.3481C15.0708 5.17285 15.5982 5.73535 15.5982 6.42285Z" fill="url(#paint0_linear_126_102)"/>
<defs>
<linearGradient id="paint0_linear_126_102" x1="0.633301" y1="6.15716" x2="10.8886" y2="9.30129" gradientUnits="userSpaceOnUse">
<stop stop-color="#DE830D" stop-opacity="0.57"/>
<stop offset="1" stop-color="#DE830D"/>
</linearGradient>
</defs>
</svg>
