<svg width="14" height="14" viewBox="0 0 14 14" fill="none" xmlns="http://www.w3.org/2000/svg">
<path d="M12.5 0H1.5C1.10218 0 0.720644 0.158035 0.43934 0.43934C0.158035 0.720644 0 1.10218 0 1.5L0 12.5C0 12.8978 0.158035 13.2794 0.43934 13.5607C0.720644 13.842 1.10218 14 1.5 14H5.78906V9.24031H3.82031V7H5.78906V5.2925C5.78906 3.35031 6.94531 2.2775 8.71625 2.2775C9.56438 2.2775 10.4513 2.42875 10.4513 2.42875V4.335H9.47406C8.51125 4.335 8.21094 4.9325 8.21094 5.54531V7H10.3603L10.0166 9.24031H8.21094V14H12.5C12.8978 14 13.2794 13.842 13.5607 13.5607C13.842 13.2794 14 12.8978 14 12.5V1.5C14 1.10218 13.842 0.720644 13.5607 0.43934C13.2794 0.158035 12.8978 0 12.5 0V0Z" fill="white"/>
</svg>
