<svg width="166" height="71" viewBox="0 0 166 71" fill="none" xmlns="http://www.w3.org/2000/svg">
<path d="M57.4557 39.6635H51.9842V63.1579H66.9563V58.8076H57.4557V39.6635Z" fill="#003E5D"/>
<path d="M74.5359 45.7022H69.2933V63.1579H74.5359V45.7022Z" fill="#003E5D"/>
<path d="M71.8869 38.5606C71.1205 38.5343 70.3739 38.8031 69.8065 39.3095C69.5519 39.5587 69.3499 39.8547 69.2121 40.1806C69.0743 40.5066 69.0034 40.856 69.0034 41.2089C69.0034 41.5618 69.0743 41.9112 69.2121 42.2372C69.3499 42.5631 69.5519 42.8592 69.8065 43.1083C70.3757 43.6105 71.1223 43.8743 71.8869 43.8436C72.6521 43.878 73.4 43.6137 73.9673 43.1083C74.2278 42.8625 74.4351 42.5675 74.5766 42.2411C74.7182 41.9148 74.7912 41.5637 74.7912 41.2089C74.7912 40.8542 74.7182 40.5031 74.5766 40.1767C74.4351 39.8503 74.2278 39.5553 73.9673 39.3095C73.4018 38.7999 72.6539 38.5306 71.8869 38.5606Z" fill="#003E5D"/>
<path d="M87.5525 45.3754C86.6149 45.3467 85.6848 45.5483 84.8467 45.9621C84.0087 46.3758 83.2892 46.9885 82.7536 47.7446L82.5872 45.7022H77.6774V63.1579H82.8992V50.8286C83.127 50.4303 83.4627 50.1018 83.8691 49.8794C84.2755 49.6571 84.7367 49.5497 85.2016 49.5691C85.5399 49.5304 85.8828 49.5672 86.2047 49.6769C86.5265 49.7865 86.8189 49.9661 87.0601 50.2023C87.449 50.7736 87.6276 51.4581 87.5663 52.1426V63.1579H92.8298V51.9247C92.8298 49.7393 92.3513 48.1054 91.4844 47.0161C91.0106 46.4538 90.4061 46.0113 89.7219 45.7258C89.0377 45.4403 88.2938 45.3201 87.5525 45.3754Z" fill="#003E5D"/>
<path d="M106.311 45.7158L106.103 47.1863C105.62 46.5857 104.996 46.1082 104.285 45.7942C103.574 45.4801 102.797 45.3388 102.018 45.3822C100.712 45.3874 99.4349 45.7582 98.336 46.4511C97.2579 47.261 96.4317 48.3503 95.9504 49.5964C95.388 51.0954 95.1106 52.683 95.1321 54.2803V54.4641C95.1321 57.1873 95.7493 59.4203 97.0461 61.0202C97.6086 61.7976 98.355 62.4293 99.2211 62.861C100.087 63.2926 101.047 63.5114 102.018 63.4983C102.737 63.509 103.448 63.3574 104.098 63.0552C104.747 62.753 105.317 62.3083 105.763 61.7555V62.2933C105.763 64.7714 104.674 66.0377 102.296 66.0377C101.562 66.0434 100.836 65.8837 100.175 65.5709C99.5138 65.2582 98.9345 64.8007 98.4816 64.2336L96.2902 67.3993C96.989 68.2485 97.9093 68.8955 98.9532 69.2715C100.062 69.7777 101.274 70.0291 102.497 70.0068C104.065 70.0495 105.623 69.7519 107.06 69.1354C108.307 68.5878 109.353 67.6777 110.056 66.5279C110.763 65.3079 111.118 63.9214 111.082 62.518V45.7158H106.311ZM105.763 58.0928C105.505 58.4655 105.156 58.7695 104.749 58.9774C104.341 59.1852 103.887 59.2905 103.428 59.2838C102.969 59.277 102.519 59.1584 102.118 58.9387C101.717 58.7189 101.378 58.4049 101.131 58.0247C100.585 56.973 100.327 55.7999 100.382 54.6207C100.322 53.3317 100.579 52.0474 101.131 50.8763C101.35 50.4823 101.676 50.1552 102.072 49.9307C102.469 49.7062 102.92 49.5929 103.378 49.6032C103.842 49.5695 104.307 49.6569 104.726 49.8566C105.145 50.0562 105.503 50.361 105.763 50.7401V58.0928Z" fill="#003E5D"/>
<path d="M123.884 57.943C123.633 58.387 123.258 58.7512 122.804 58.9925C122.349 59.2338 121.833 59.3421 121.318 59.3046C119.931 59.3046 119.237 58.5489 119.237 57.0512V45.7022H113.967V57.0171C113.967 59.1004 114.443 60.6889 115.395 61.7827C115.915 62.3525 116.559 62.7992 117.28 63.0893C118.001 63.3793 118.779 63.5052 119.556 63.4575C120.436 63.4923 121.31 63.3106 122.1 62.9289C122.89 62.5472 123.569 61.9777 124.078 61.2721L124.244 63.1647H129.154V45.7022H123.884V57.943Z" fill="#003E5D"/>
<path d="M146.04 59.2297V51.4686C146.051 50.631 145.887 49.8001 145.557 49.0272C145.228 48.2544 144.741 47.556 144.126 46.9753C142.675 45.844 140.851 45.2769 139.001 45.3822C137.104 45.3186 135.239 45.8793 133.703 46.9753C133.044 47.4389 132.51 48.0531 132.148 48.7649C131.785 49.4767 131.605 50.2645 131.623 51.0601H136.921C136.921 49.7938 137.531 49.1198 138.759 49.1198C140.146 49.1198 140.839 49.9232 140.839 51.5299V52.4694H139.202C136.616 52.4694 134.639 53.0004 133.343 53.9399C132.663 54.4298 132.117 55.0772 131.754 55.8244C131.391 56.5715 131.222 57.3953 131.262 58.2221C131.24 58.9323 131.381 59.6382 131.677 60.2868C131.972 60.9354 132.414 61.5097 132.968 61.9665C133.502 62.4707 134.132 62.8662 134.823 63.1303C135.513 63.3944 136.25 63.5218 136.99 63.5052C137.77 63.5305 138.545 63.3667 139.245 63.0283C139.945 62.6899 140.55 62.1873 141.005 61.5649C141.121 62.1121 141.281 62.6493 141.484 63.1716H146.734V62.9061C146.238 61.7431 146.002 60.4897 146.04 59.2297ZM140.79 58.2289C140.542 58.603 140.216 58.9209 139.833 59.1616C139.351 59.4768 138.783 59.6406 138.204 59.6314C137.977 59.641 137.751 59.6043 137.539 59.5236C137.328 59.4428 137.136 59.3198 136.976 59.1623C136.815 59.0048 136.69 58.8163 136.608 58.6088C136.525 58.4012 136.488 58.1791 136.498 57.9566C136.498 56.2206 137.448 55.4172 139.223 55.4172H140.79V58.2289Z" fill="#003E5D"/>
<path d="M44.6403 61.3742C44.915 61.3915 45.1908 61.3686 45.4586 61.3062C45.3892 61.7078 45.3892 62.1095 45.3268 62.5112C45.2575 63.192 44.9177 63.3758 44.1687 63.3145C43.6196 63.3338 43.0701 63.2881 42.5321 63.1784C41.9843 63.1103 41.7832 62.9129 41.8387 62.375C41.9202 61.9253 41.9665 61.4701 41.9774 61.0134C42.8435 61.2552 43.7398 61.3767 44.6403 61.3742Z" fill="#003E5D"/>
<path d="M47.4627 45.1848C47.4964 45.2211 47.515 45.2685 47.515 45.3175C47.515 45.3666 47.4964 45.414 47.4627 45.4503C46.8525 50.604 46.1659 55.8189 45.5557 60.9726C44.3934 61.1266 43.2109 61.0337 42.0883 60.7003C42.6639 55.8257 43.3019 50.9988 43.8913 46.1856C44.0994 44.3134 44.3005 44.1432 46.5474 44.5789H46.686C47.2963 44.5789 47.4627 44.7831 47.4627 45.1848Z" fill="#003E5D"/>
<path d="M48.6624 61.3742C49.1468 61.3833 49.6294 61.3143 50.091 61.17V62.375C50.091 63.2464 49.3975 63.2464 48.8011 63.2464C48.2047 63.2464 47.4142 63.2464 47.4142 62.375V61.2721C47.8266 61.3408 48.2442 61.3749 48.6624 61.3742Z" fill="#DD810F"/>
<path d="M50.091 43.6462C50.0286 49.399 50.0286 55.0836 50.091 60.8364C49.2267 61.1043 48.2993 61.1043 47.435 60.8364C47.5043 57.9566 47.5043 55.0836 47.5043 52.2719C47.5043 49.9981 47.435 44.1772 47.435 43.6462C48.2982 43.3715 49.2278 43.3715 50.091 43.6462Z" fill="#DD810F"/>
<path d="M50.091 42.1076V43.2445C49.2194 43.0459 48.3159 43.0228 47.435 43.1764V42.1076C47.435 41.2361 48.0522 41.1681 48.7318 41.1681C49.4114 41.1681 50.091 41.1681 50.091 42.1076Z" fill="#DD810F"/>
<path d="M40.8955 48.725V50.2636C39.7678 50.0568 38.6088 50.0799 37.4906 50.3316V49.8006C37.4906 47.7242 37.553 47.7242 40.0079 47.9216C40.6875 47.9216 40.9649 48.1259 40.8955 48.725Z" fill="#003E5D"/>
<path d="M40.8955 50.604V60.7683C39.7751 61.0476 38.5985 61.0241 37.4906 60.7003V50.6652C38.6088 50.412 39.7686 50.3912 40.8955 50.604Z" fill="#003E5D"/>
<path d="M39.2589 61.3062C39.8073 61.3032 40.3545 61.2577 40.8955 61.17V61.4355C40.8955 63.3145 40.7568 63.4779 38.3713 63.2464H38.1702C37.6223 63.2464 37.4212 62.9741 37.4767 62.5112V60.9726C38.0398 61.207 38.6475 61.3207 39.2589 61.3062Z" fill="#003E5D"/>
<path d="M15.986 52.6123H15.5075C15.3275 52.6123 15.1815 52.7556 15.1815 52.9323V58.2358C15.1815 58.4125 15.3275 58.5557 15.5075 58.5557H15.986C16.166 58.5557 16.3119 58.4125 16.3119 58.2358V52.9323C16.3119 52.7556 16.166 52.6123 15.986 52.6123Z" fill="#DD810F"/>
<path d="M17.5393 54.5458H17.0608C16.8808 54.5458 16.7349 54.6891 16.7349 54.8658V56.2955C16.7349 56.4722 16.8808 56.6154 17.0608 56.6154H17.5393C17.7193 56.6154 17.8653 56.4722 17.8653 56.2955V54.8658C17.8653 54.6891 17.7193 54.5458 17.5393 54.5458Z" fill="#DD810F"/>
<path d="M19.0858 54.0965H18.6142C18.4342 54.0965 18.2883 54.2397 18.2883 54.4165V56.7516C18.2883 56.9283 18.4342 57.0716 18.6142 57.0716H19.0858C19.2658 57.0716 19.4117 56.9283 19.4117 56.7516V54.4165C19.4117 54.2397 19.2658 54.0965 19.0858 54.0965Z" fill="#DD810F"/>
<path d="M20.6322 53.5859H20.1607C19.9807 53.5859 19.8347 53.7291 19.8347 53.9059V57.2554C19.8347 57.4321 19.9807 57.5754 20.1607 57.5754H20.6322C20.8122 57.5754 20.9582 57.4321 20.9582 57.2554V53.9059C20.9582 53.7291 20.8122 53.5859 20.6322 53.5859Z" fill="#DD810F"/>
<path d="M22.1787 48.6637H21.7071C21.5271 48.6637 21.3812 48.8069 21.3812 48.9837V62.1844C21.3812 62.3611 21.5271 62.5044 21.7071 62.5044H22.1787C22.3587 62.5044 22.5046 62.3611 22.5046 62.1844V48.9837C22.5046 48.8069 22.3587 48.6637 22.1787 48.6637Z" fill="#DD810F"/>
<path d="M23.7321 49.8415H23.2536C23.0736 49.8415 22.9276 49.9847 22.9276 50.1614V60.9998C22.9276 61.1765 23.0736 61.3198 23.2536 61.3198H23.7321C23.9121 61.3198 24.058 61.1765 24.058 60.9998V50.1614C24.058 49.9847 23.9121 49.8415 23.7321 49.8415Z" fill="#DD810F"/>
<path d="M33.6557 52.7008H32.8374C32.6574 52.7008 32.5114 52.8441 32.5114 53.0208V58.1404C32.5114 58.3172 32.6574 58.4604 32.8374 58.4604H33.6557C33.8357 58.4604 33.9816 58.3172 33.9816 58.1404V53.0208C33.9816 52.8441 33.8357 52.7008 33.6557 52.7008Z" fill="#DD810F"/>
<path d="M36.277 50.7946H35.0288C34.952 50.8048 34.8824 50.8439 34.8345 50.9036C34.7866 50.9633 34.7643 51.039 34.7722 51.1146V60.0467C34.7643 60.1223 34.7866 60.1979 34.8345 60.2577C34.8824 60.3174 34.952 60.3565 35.0288 60.3667H36.277C36.3537 60.3565 36.4234 60.3174 36.4713 60.2577C36.5191 60.1979 36.5415 60.1223 36.5336 60.0467V51.1146C36.5415 51.039 36.5191 50.9633 36.4713 50.9036C36.4234 50.8439 36.3537 50.8048 36.277 50.7946Z" fill="#DD810F"/>
<path d="M25.2785 52.5715H24.8069C24.6269 52.5715 24.481 52.7147 24.481 52.8915V58.2766C24.481 58.4533 24.6269 58.5966 24.8069 58.5966H25.2785C25.4585 58.5966 25.6044 58.4533 25.6044 58.2766V52.8915C25.6044 52.7147 25.4585 52.5715 25.2785 52.5715Z" fill="#DD810F"/>
<path d="M26.825 53.4838H26.3534C26.1734 53.4838 26.0275 53.627 26.0275 53.8037V57.3575C26.0275 57.5342 26.1734 57.6775 26.3534 57.6775H26.825C27.005 57.6775 27.1509 57.5342 27.1509 57.3575V53.8037C27.1509 53.627 27.005 53.4838 26.825 53.4838Z" fill="#DD810F"/>
<path d="M28.3783 54.2667H27.8998C27.7198 54.2667 27.5739 54.4099 27.5739 54.5867V56.5746C27.5739 56.7513 27.7198 56.8946 27.8998 56.8946H28.3783C28.5583 56.8946 28.7043 56.7513 28.7043 56.5746V54.5867C28.7043 54.4099 28.5583 54.2667 28.3783 54.2667Z" fill="#DD810F"/>
<path d="M29.9248 54.5798H29.4463C29.2663 54.5798 29.1204 54.7231 29.1204 54.8998V56.2682C29.1204 56.445 29.2663 56.5882 29.4463 56.5882H29.9248C30.1048 56.5882 30.2507 56.445 30.2507 56.2682V54.8998C30.2507 54.7231 30.1048 54.5798 29.9248 54.5798Z" fill="#DD810F"/>
<path d="M31.5128 55.0632H31.0413C30.8613 55.0632 30.7153 55.2065 30.7153 55.3832V55.7849C30.7153 55.9616 30.8613 56.1048 31.0413 56.1048H31.5128C31.6928 56.1048 31.8388 55.9616 31.8388 55.7849V55.3832C31.8388 55.2065 31.6928 55.0632 31.5128 55.0632Z" fill="#DD810F"/>
<path d="M14.4256 54.0829H13.9471C13.7671 54.0829 13.6212 54.2261 13.6212 54.4028V56.7312C13.6212 56.9079 13.7671 57.0512 13.9471 57.0512H14.4256C14.6056 57.0512 14.7516 56.9079 14.7516 56.7312V54.4028C14.7516 54.2261 14.6056 54.0829 14.4256 54.0829Z" fill="#DD810F"/>
<path d="M12.8723 53.1434H12.3938C12.2138 53.1434 12.0678 53.2866 12.0678 53.4633V57.6979C12.0678 57.8746 12.2138 58.0179 12.3938 58.0179H12.8723C13.0523 58.0179 13.1982 57.8746 13.1982 57.6979V53.4633C13.1982 53.2866 13.0523 53.1434 12.8723 53.1434Z" fill="#DD810F"/>
<path d="M11.3189 53.5723H10.8404C10.6604 53.5723 10.5145 53.7155 10.5145 53.8922V57.2758C10.5145 57.4525 10.6604 57.5958 10.8404 57.5958H11.3189C11.4989 57.5958 11.6448 57.4525 11.6448 57.2758V53.8922C11.6448 53.7155 11.4989 53.5723 11.3189 53.5723Z" fill="#DD810F"/>
<path d="M9.7655 54.0352H9.287C9.10699 54.0352 8.96107 54.1785 8.96107 54.3552V56.8061C8.96107 56.9828 9.10699 57.126 9.287 57.126H9.7655C9.94551 57.126 10.0914 56.9828 10.0914 56.8061V54.3552C10.0914 54.1785 9.94551 54.0352 9.7655 54.0352Z" fill="#DD810F"/>
<path d="M8.18438 54.7705H7.71282C7.53281 54.7705 7.38688 54.9137 7.38688 55.0904V56.0776C7.38688 56.2543 7.53281 56.3976 7.71282 56.3976H8.18438C8.36439 56.3976 8.51031 56.2543 8.51031 56.0776V55.0904C8.51031 54.9137 8.36439 54.7705 8.18438 54.7705Z" fill="#DD810F"/>
<path d="M6.62406 55.0836H6.14557C5.96556 55.0836 5.81963 55.2269 5.81963 55.4036V55.7576C5.81963 55.9344 5.96556 56.0776 6.14557 56.0776H6.62406C6.80407 56.0776 6.95 55.9344 6.95 55.7576V55.4036C6.95 55.2269 6.80407 55.0836 6.62406 55.0836Z" fill="#DD810F"/>
<path d="M72.1088 23.0111C72.5526 23.2562 73.149 23.2562 73.2946 23.0587C73.4403 22.8613 73.8425 21.738 73.9396 21.4929C74.0503 21.2277 74.1 20.9418 74.0852 20.6555C74.1892 20.4104 73.7939 20.0224 73.149 19.8726C72.6497 19.6752 72.1088 19.7773 72.1088 20.07L72.0117 20.8053C71.9077 21.0504 71.5609 22.0307 71.4639 22.1669C71.2142 22.3711 71.5124 22.8137 72.1088 23.0111Z" fill="#DD810F"/>
<path d="M74.5845 35.6604C77.5456 35.531 81.3251 32.6036 82.9062 30.711C83.5154 31.127 84.1526 31.5023 84.8132 31.8343C85.8049 32.3789 87.6911 33.3048 88.9255 33.9448C87.3301 34.2847 85.7037 34.4649 84.0712 34.4826C83.5244 34.4915 82.9781 34.4436 82.4416 34.3396C81.3459 34.0945 81.7966 35.32 82.3861 35.6127C83.4087 35.9378 84.4808 36.0874 85.5553 36.0552C86.7234 36.0686 87.8886 35.9359 89.0226 35.6604C90.3125 35.32 91.2556 33.9448 90.1668 33.0121C88.7779 32.0603 87.32 31.2093 85.8049 30.4659C84.8132 29.8736 83.6759 29.3834 83.9741 28.6958C84.515 27.4227 89.0226 26.5921 90.8603 25.9726C91.2556 25.4824 90.2639 24.5497 89.4734 24.6518C86.9491 24.9922 81.547 26.5649 81.9423 29.1587C81.9733 29.3953 82.0436 29.6253 82.1503 29.8395C79.9658 31.596 76.0477 34.1762 73.5582 34.1762C73.0431 34.1876 72.5386 34.0321 72.1227 33.7337C71.3806 33.1006 72.3654 27.5588 72.7676 27.164C72.8161 26.9189 72.5179 26.524 71.9701 26.3334C71.4222 26.1428 70.8813 26.2313 70.8328 26.4764C70.2248 27.6775 69.9361 29.0101 69.9937 30.3501C69.9937 31.9704 70.3404 33.6384 71.0825 34.4349C71.5376 34.8807 72.0878 35.2217 72.6933 35.4336C73.2989 35.6455 73.9448 35.723 74.5845 35.6604Z" fill="#DD810F"/>
<path d="M94.8547 33.6044C94.8547 40.1741 94.5288 43.7347 95.7216 45.355C96.1099 45.886 96.5191 42.8905 96.3734 41.7604C96.3249 38.9623 96.4151 43.3126 96.4151 38.3087C96.4151 33.8494 96.5538 29.2404 96.6023 26.1019L96.9352 17.8642C97.2979 17.8572 97.6595 17.8231 98.017 17.7621C101.616 17.4694 107.143 16.9792 112.205 16.9792C114.762 16.9261 117.317 17.1246 119.834 17.5715C120.215 17.6191 120.451 17.4217 120.402 17.0268C120.125 16.6192 119.751 16.283 119.314 16.0465C117.055 15.6337 114.759 15.4534 112.462 15.5087C107.83 15.5087 102.441 15.9512 98.4192 16.2439C97.9476 16.2916 97.4761 16.346 97.0322 16.346C97.2264 12.5199 97.5038 8.69383 97.8367 6.24295C97.698 5.26259 95.8533 4.96985 95.9019 5.75277C95.7077 8.78915 95.4719 12.6629 95.2847 16.489C91.0828 16.7728 86.8997 17.2796 82.7536 18.0072C81.9492 18.2046 82.9478 19.4845 83.8424 19.3348C87.6287 18.654 91.3111 18.3544 95.2361 18.0072C95.0975 21.0027 95.0004 23.8961 94.9518 26.1768C94.8963 28.1103 94.8547 30.7586 94.8547 33.6044Z" fill="#DD810F"/>
<path d="M102.247 20.07L102.157 20.8053C102.06 21.0504 101.727 22.0307 101.637 22.1669C101.394 22.3575 101.679 22.8 102.247 22.9975C102.677 23.2426 103.239 23.2426 103.384 23.0451C103.53 22.8477 103.905 21.7244 103.995 21.4793C104.105 21.2141 104.155 20.9281 104.14 20.6419C104.237 20.3968 103.856 20.0088 103.239 19.859C102.746 19.6752 102.247 19.7773 102.247 20.07Z" fill="#DD810F"/>
<path d="M163.412 31.2692C161.165 31.95 152.781 32.9372 146.99 32.9372C145.435 32.9841 143.88 32.8492 142.358 32.5355C142.05 32.4783 141.77 32.3233 141.561 32.0945C141.351 31.8657 141.225 31.5757 141.2 31.2692C141.269 30.5339 141.401 29.7987 141.401 29.2268C141.334 28.7959 141.124 28.3986 140.805 28.096C140.485 27.7934 140.073 27.6023 139.632 27.552C136.907 27.2184 133.391 29.0294 131.727 30.2276L131.796 28.5596C131.865 28.2873 131.387 27.8244 130.978 27.552C130.499 27.4227 130.021 27.4227 130.021 27.7563L129.681 31.3169C128.818 32.1083 127.771 32.6803 126.631 32.983C125.491 33.2856 124.293 33.3096 123.142 33.0529C122.254 32.7874 121.983 31.8479 122.053 31.0105C122.229 30.137 122.504 29.2854 122.871 28.4711C123.211 27.872 121.484 26.7963 121.234 27.3342L120.416 28.4575H120.347C119.106 27.8997 117.759 27.6029 116.394 27.5861C114.724 27.5745 113.088 28.0482 111.692 28.9477C110.939 29.4233 110.383 30.1477 110.125 30.9901C108.149 32.5287 105.631 34.1354 103.724 34.1354C103.203 34.1579 102.692 33.9906 102.289 33.6656C101.54 33.0665 102.566 27.5384 102.906 27.1163C102.968 26.844 102.698 26.5104 102.157 26.313C101.616 26.1155 101.061 26.1768 100.992 26.4423C100.421 27.6573 100.143 28.9853 100.181 30.3229C100.181 31.9296 100.52 33.6044 101.269 34.4077C101.725 34.8454 102.269 35.1844 102.866 35.4025C103.463 35.6206 104.101 35.7131 104.737 35.674C106.574 35.5446 108.551 34.3124 110.118 32.9508C110.327 33.5775 110.727 34.1259 111.264 34.5218C111.801 34.9176 112.45 35.1416 113.121 35.1634C115.707 35.1634 118.981 32.6172 120.34 31.4122C120.586 32.1822 121.037 32.8737 121.646 33.4148C122.256 33.9559 123.002 34.327 123.807 34.4894C125.444 34.8911 127.968 33.9584 129.535 32.9508C129.466 33.3724 129.466 33.8023 129.535 34.2239C129.598 34.9591 131.304 35.4289 131.234 34.7617L131.304 33.6861C132.191 31.6436 135.735 29.2745 139.348 28.8728C138.939 33.3525 142.413 34.0945 143.301 34.36C144.757 34.6476 146.24 34.7823 147.725 34.7617C153.145 34.6869 158.531 33.8992 163.737 32.4198C164.077 32.3517 166.123 31.5483 165.783 31.1467C165.443 30.745 163.751 31.2011 163.412 31.2692ZM112.309 33.5431C111.561 33.475 111.214 32.9372 111.422 32.4061C111.97 30.1323 115.167 29.1928 117.621 29.1928C118.269 29.1628 118.916 29.2553 119.529 29.4651C117.83 31.2692 114.626 33.2776 112.309 33.5431Z" fill="#DD810F"/>
<path d="M67.7954 26.0543C65.07 25.6117 61.4085 28.4507 60.1672 30.0233L60.2226 28.1103C60.1867 27.8948 60.1011 27.6903 59.9725 27.5122C59.844 27.334 59.6757 27.187 59.4806 27.0823C58.9813 26.8372 58.4889 26.8372 58.4889 27.1776C58.274 29.1043 58.1353 30.5476 58.0521 31.6436C55.9162 32.6671 53.5831 33.2334 51.2075 33.3048C50.6581 33.3165 50.1138 33.1998 49.6194 32.9644C49.2727 31.5415 49.668 30.1731 49.5223 28.9953C49.3756 28.6529 49.1524 28.3472 48.8691 28.1009C48.5858 27.8546 48.2497 27.674 47.8857 27.5725C45.0633 26.6874 40.8539 30.6088 39.3213 32.3381V27.9605C39.4184 21.2478 39.5155 14.8687 40.1604 8.59171C40.1604 7.86326 38.2326 7.27096 38.2326 7.95857C37.8858 14.2356 37.6362 20.2675 37.6362 27.021V28.015C35.3061 35.9667 26.4089 43.0879 18.2189 43.0879C17.6055 43.0885 16.993 43.0384 16.3882 42.9381C7.14415 41.6787 2.93476 31.773 3.12894 24.0731C3.42713 12.6969 11.305 0.885042 23.1357 1.2731C28.9331 1.47053 30.965 5.00389 30.965 9.44272C30.965 13.7318 29.0302 18.8174 26.6793 22.3779C25.7501 23.6374 23.2813 26.5853 20.5906 26.701C19.2037 26.7623 17.8861 26.0202 16.7002 24.4884C14.6198 21.7652 14.703 20.7508 14.3077 20.7508C14.0511 20.7508 13.4201 22.412 15.6461 25.2782C17.0331 27.0891 18.6627 28.0014 20.4242 28.0014H20.653C25.2299 27.8175 28.5725 22.8954 28.7112 22.6775C31.3101 18.9781 32.7558 14.616 32.872 10.1235C32.8998 4.65668 30.1259 0 22.4422 0C9.51583 0 1.20108 12.8944 0.999973 24.2229C0.854343 33.8835 6.99159 43.2854 16.5546 44.1772C17.2966 44.2521 17.9901 44.2521 18.6836 44.2521C22.6769 44.2861 26.5943 43.1801 29.9591 41.0685C33.3239 38.957 35.9911 35.9309 37.6362 32.3585V33.9924C37.6091 34.5329 37.6253 35.0747 37.6847 35.6127C37.8858 36.3956 39.4184 37.0356 39.3699 36.2935C39.564 34.0401 44.7651 28.8047 47.5875 28.9885C47.5875 29.3289 47.4905 29.9212 47.4905 30.602C47.4493 31.1959 47.5538 31.7908 47.7951 32.3369C48.0364 32.883 48.4075 33.3643 48.8774 33.7405C49.8548 34.3911 51.0114 34.7332 52.1922 34.7209C54.2257 34.6552 56.2098 34.0886 57.9619 33.0733C57.8788 33.7401 57.9211 34.4163 58.0867 35.0681C58.2878 35.8033 59.9244 36.4297 59.8759 35.8033C59.92 35.0903 60.0362 34.3834 60.2226 33.6929C61.4085 30.2889 65.5208 27.3206 67.9965 27.3682L67.9479 27.7631C67.8994 28.1511 68.5859 28.4439 69.2794 27.661C69.6539 27.2797 68.9604 26.2449 67.7954 26.0543Z" fill="#DD810F"/>
</svg>
