<svg width="14" height="14" viewBox="0 0 14 14" fill="none" xmlns="http://www.w3.org/2000/svg">
<path d="M13 0H0.996875C0.446875 0 0 0.453125 0 1.00938V12.9906C0 13.5469 0.446875 14 0.996875 14H13C13.55 14 14 13.5469 14 12.9906V1.00938C14 0.453125 13.55 0 13 0ZM4.23125 12H2.15625V5.31875H4.23438V12H4.23125ZM3.19375 4.40625C2.52812 4.40625 1.99063 3.86563 1.99063 3.20312C1.99063 2.54062 2.52812 2 3.19375 2C3.85625 2 4.39687 2.54062 4.39687 3.20312C4.39687 3.86875 3.85937 4.40625 3.19375 4.40625V4.40625ZM12.0094 12H9.93437V8.75C9.93437 7.975 9.91875 6.97813 8.85625 6.97813C7.775 6.97813 7.60938 7.82188 7.60938 8.69375V12H5.53438V5.31875H7.525V6.23125H7.55312C7.83125 5.70625 8.50938 5.15312 9.51875 5.15312C11.6188 5.15312 12.0094 6.5375 12.0094 8.3375V12V12Z" fill="#023E5D"/>
</svg>
