<svg width="17" height="12" viewBox="0 0 17 12" fill="none" xmlns="http://www.w3.org/2000/svg">
<path d="M14.8281 0C15.6562 0 16.3281 0.671562 16.3281 1.5C16.3281 1.97188 16.1062 2.41562 15.7281 2.7L8.92813 7.8C8.57188 8.06563 8.08438 8.06563 7.72813 7.8L0.928125 2.7C0.550406 2.41562 0.328125 1.97188 0.328125 1.5C0.328125 0.671562 0.999687 0 1.82812 0H14.8281ZM7.12813 8.6C7.84063 9.13438 8.81562 9.13438 9.52812 8.6L16.3281 3.5V10C16.3281 11.1031 15.4312 12 14.3281 12H2.32812C1.22344 12 0.328125 11.1031 0.328125 10V3.5L7.12813 8.6Z" fill="white"/>
</svg>
