<svg width="22" height="17" viewBox="0 0 22 17" fill="none" xmlns="http://www.w3.org/2000/svg">
<path d="M19.7727 0C20.902 0 21.8182 0.915767 21.8182 2.04545C21.8182 2.68892 21.5156 3.29403 21 3.68182L11.7273 10.6364C11.2415 10.9986 10.5767 10.9986 10.0909 10.6364L0.818182 3.68182C0.303111 3.29403 0 2.68892 0 2.04545C0 0.915767 0.915767 0 2.04545 0H19.7727ZM9.27273 11.7273C10.2443 12.456 11.5739 12.456 12.5455 11.7273L21.8182 4.77273V13.6364C21.8182 15.1406 20.5952 16.3636 19.0909 16.3636H2.72727C1.22088 16.3636 0 15.1406 0 13.6364V4.77273L9.27273 11.7273Z" fill="#023E5D"/>
</svg>
