<svg width="22" height="22" viewBox="0 0 22 22" fill="none" xmlns="http://www.w3.org/2000/svg">
<path d="M0.806156 14.9638L5.42974 12.9814C5.97434 12.7457 6.61312 12.9046 6.983 13.3641L8.86184 15.6575C11.8128 14.2087 14.2098 11.8091 15.6587 8.86064L13.3657 6.98394C12.9076 6.60975 12.7516 5.97442 12.9833 5.42982L14.9652 0.806241C15.2249 0.213486 15.8644 -0.110804 16.4904 0.0345085L20.7858 1.02528C21.3931 1.16377 21.8179 1.69857 21.8179 2.32329C21.8179 13.0747 13.0736 21.819 2.32218 21.819C1.69704 21.819 1.16394 21.3943 1.02459 20.7869L0.0338261 16.4915C-0.109654 15.8672 0.213741 15.2195 0.806156 14.9638Z" fill="#023E5D"/>
</svg>
