<svg width="16" height="16" viewBox="0 0 16 16" fill="none" xmlns="http://www.w3.org/2000/svg">
<path d="M0.591242 10.9732L3.98187 9.51944C4.38124 9.34659 4.84968 9.46316 5.12093 9.80006L6.49874 11.4819C8.6628 10.4194 10.4206 8.65975 11.4831 6.49756L9.80155 5.12131C9.46562 4.84691 9.35124 4.381 9.52112 3.98162L10.9746 0.591C11.165 0.156312 11.6339 -0.0815004 12.093 0.0250621L15.243 0.751625C15.6883 0.853187 15.9999 1.24537 15.9999 1.7035C15.9999 9.58787 9.58737 16.0004 1.70299 16.0004C1.24455 16.0004 0.853617 15.6889 0.751429 15.2435L0.0248669 12.0935C-0.0803519 11.6357 0.156804 11.1607 0.591242 10.9732Z" fill="white"/>
</svg>
