<svg width="16" height="16" viewBox="0 0 16 16" fill="none" xmlns="http://www.w3.org/2000/svg">
<path d="M0.591181 10.9734L3.98181 9.51968C4.38118 9.34684 4.84962 9.4634 5.12087 9.80031L6.49868 11.4822C8.66274 10.4197 10.4206 8.65999 11.4831 6.49781L9.80149 5.12156C9.46556 4.84715 9.35118 4.38124 9.52106 3.98187L10.9745 0.591244C11.1649 0.156556 11.6339 -0.0812563 12.0929 0.0253062L15.2429 0.751869C15.6882 0.853431 15.9998 1.24562 15.9998 1.70374C15.9998 9.58812 9.58731 16.0006 1.70293 16.0006C1.24449 16.0006 0.853556 15.6891 0.751368 15.2437L0.0248058 12.0937C-0.0804129 11.6359 0.156743 11.1609 0.591181 10.9734Z" fill="#023E5D"/>
</svg>
