<svg width="18" height="16" viewBox="0 0 18 16" fill="none" xmlns="http://www.w3.org/2000/svg">
<path d="M17.1767 3.87759C16.9804 3.13853 16.4021 2.55647 15.6678 2.35894C14.3369 2 8.99999 2 8.99999 2C8.99999 2 3.66311 2 2.33214 2.35894C1.59786 2.5565 1.01955 3.13853 0.823269 3.87759C0.466644 5.21719 0.466644 8.01213 0.466644 8.01213C0.466644 8.01213 0.466644 10.8071 0.823269 12.1467C1.01955 12.8857 1.59786 13.4435 2.33214 13.6411C3.66311 14 8.99999 14 8.99999 14C8.99999 14 14.3369 14 15.6678 13.6411C16.4021 13.4435 16.9804 12.8857 17.1767 12.1467C17.5333 10.8071 17.5333 8.01213 17.5333 8.01213C17.5333 8.01213 17.5333 5.21719 17.1767 3.87759V3.87759ZM7.25452 10.5497V5.47453L11.7151 8.01219L7.25452 10.5497V10.5497Z" fill="#023E5D"/>
</svg>
